<svg width="51" height="40" viewBox="0 0 51 40" fill="none" xmlns="http://www.w3.org/2000/svg">
<path fill-rule="evenodd" clip-rule="evenodd" d="M34.1795 11.1736C34.7274 10.9195 35.2729 10.7064 35.8115 10.5359C36.9359 10.1782 38.0365 9.99981 39.1055 10C41.4476 10 43.6363 10.8563 45.5806 12.5582C48.5322 15.1401 49.624 18.6477 48.6562 22.4326C47.661 26.3225 45.0244 28.8567 41.0326 29.7593C39.0969 30.1961 37.3464 29.9927 35.8304 29.515C34.3649 29.0549 33.1202 28.3393 32.1414 27.703C31.2505 27.124 30.4124 26.4886 29.6125 25.8217C30.866 25.6277 31.8446 24.6001 31.966 23.3222C32.9139 24.1039 33.911 24.821 34.9866 25.4131C37.1843 26.6231 39.0793 26.8811 40.9495 26.2311C43.7265 25.2644 45.2086 23.4156 45.4797 20.581C45.7279 17.9813 44.7081 15.9333 42.4532 14.4928C40.336 13.1412 38.0772 13.0852 35.5482 14.3249C33.8006 15.1809 32.2778 16.3606 30.8082 17.6946C30.388 18.074 29.9723 18.4662 29.5572 18.8676C29.4983 18.9248 29.4027 18.9179 29.3521 18.8533C28.5025 17.7661 28.2601 16.3571 28.6304 15.0868C28.6379 15.0617 28.652 15.0393 28.6713 15.0218C30.2793 13.5715 32.0631 12.1534 34.1795 11.1736Z" fill="url(#paint0_linear_4629_33722)"/>
<path fill-rule="evenodd" clip-rule="evenodd" d="M2.34379 22.4326C1.37574 18.6477 2.46798 15.1401 5.41952 12.5582C7.3638 10.8562 9.55217 9.99981 11.8947 10C12.9633 10 14.0645 10.1782 15.1887 10.5359C15.7271 10.7064 16.2724 10.9195 16.8204 11.1736C18.4119 11.9103 19.8152 12.8948 21.0971 13.9545C19.801 14.0532 18.7563 15.0526 18.5854 16.3292C17.6032 15.5575 16.5739 14.8745 15.4517 14.3249C12.9228 13.0852 10.6639 13.1412 8.54676 14.4928C6.29183 15.9333 5.27209 17.9813 5.5201 20.581C5.79153 23.4156 7.27344 25.2644 10.0504 26.2311C11.9209 26.8811 13.8157 26.6231 16.0134 25.4131C17.1489 24.7879 18.1975 24.0233 19.1925 23.1905C19.3684 23.0443 19.5539 22.9147 19.7459 22.8054C21.1035 22.0289 23.034 22.193 24.2852 23.2067C24.3497 23.259 24.3538 23.3569 24.2935 23.4141C23.8055 23.8748 23.2406 24.3221 22.683 24.7636C22.3292 25.0437 21.9784 25.3215 21.6519 25.599C20.7727 26.3471 19.8482 27.0599 18.8586 27.703C17.8798 28.3393 16.6353 29.0549 15.1695 29.515C13.6534 29.9927 11.9032 30.1961 9.96732 29.7593C5.97559 28.8567 3.33898 26.3225 2.34379 22.4326Z" fill="url(#paint1_linear_4629_33722)"/>
<path fill-rule="evenodd" clip-rule="evenodd" d="M29.182 20.811C30.4186 20.811 31.4211 21.815 31.4211 23.0536C31.4211 24.2921 30.4186 25.2962 29.182 25.2962C27.9453 25.2962 26.9429 24.2922 26.9429 23.0536C26.9429 21.815 27.9453 20.811 29.182 20.811Z" fill="#0B9ED9"/>
<path fill-rule="evenodd" clip-rule="evenodd" d="M21.3083 14.5051C22.5178 14.5051 23.4982 15.487 23.4982 16.6983C23.4982 17.9097 22.5178 18.8916 21.3083 18.8916C20.099 18.8916 19.1187 17.9096 19.1187 16.6983C19.1187 15.487 20.099 14.5051 21.3083 14.5051Z" fill="#0B9ED9"/>
<defs>
<linearGradient id="paint0_linear_4629_33722" x1="69.7733" y1="8.8245" x2="27.3297" y2="-14.9259" gradientUnits="userSpaceOnUse">
<stop stop-color="#0B9ED8"/>
<stop offset="1" stop-color="#1CD875"/>
</linearGradient>
<linearGradient id="paint1_linear_4629_33722" x1="66.4511" y1="19.3951" x2="22.2187" y2="-7.52417" gradientUnits="userSpaceOnUse">
<stop stop-color="#0B9ED8"/>
<stop offset="1" stop-color="#1CD875"/>
</linearGradient>
</defs>
</svg>
