<svg width="180" height="40" viewBox="0 0 180 40" fill="none" xmlns="http://www.w3.org/2000/svg">
<path fill-rule="evenodd" clip-rule="evenodd" d="M34.1795 11.1736C34.7274 10.9195 35.2729 10.7064 35.8115 10.5359C36.9359 10.1782 38.0365 9.99981 39.1055 10C41.4476 10 43.6363 10.8563 45.5806 12.5582C48.5322 15.1401 49.624 18.6477 48.6562 22.4326C47.661 26.3225 45.0244 28.8567 41.0326 29.7593C39.0969 30.1961 37.3464 29.9927 35.8304 29.515C34.3649 29.0549 33.1202 28.3393 32.1414 27.703C31.2505 27.124 30.4124 26.4886 29.6125 25.8217C30.866 25.6277 31.8446 24.6001 31.966 23.3222C32.9139 24.1039 33.911 24.821 34.9866 25.4131C37.1843 26.6231 39.0793 26.8811 40.9495 26.2311C43.7265 25.2644 45.2086 23.4156 45.4797 20.581C45.7279 17.9813 44.7081 15.9333 42.4532 14.4928C40.336 13.1412 38.0772 13.0852 35.5482 14.3249C33.8006 15.1809 32.2778 16.3606 30.8082 17.6946C30.388 18.074 29.9723 18.4662 29.5572 18.8676C29.4983 18.9248 29.4027 18.9179 29.3521 18.8533C28.5025 17.7661 28.2601 16.3571 28.6304 15.0868C28.6379 15.0617 28.652 15.0393 28.6713 15.0218C30.2793 13.5715 32.0631 12.1534 34.1795 11.1736Z" fill="url(#paint0_linear_4629_33710)"/>
<path fill-rule="evenodd" clip-rule="evenodd" d="M2.34379 22.4326C1.37574 18.6477 2.46798 15.1401 5.41952 12.5582C7.3638 10.8562 9.55217 9.99981 11.8947 10C12.9633 10 14.0645 10.1782 15.1887 10.5359C15.7271 10.7064 16.2724 10.9195 16.8204 11.1736C18.4119 11.9103 19.8152 12.8948 21.0971 13.9545C19.801 14.0532 18.7563 15.0526 18.5854 16.3292C17.6032 15.5575 16.5739 14.8745 15.4517 14.3249C12.9228 13.0852 10.6639 13.1412 8.54676 14.4928C6.29183 15.9333 5.27209 17.9813 5.5201 20.581C5.79153 23.4156 7.27344 25.2644 10.0504 26.2311C11.9209 26.8811 13.8157 26.6231 16.0134 25.4131C17.1489 24.7879 18.1975 24.0233 19.1925 23.1905C19.3684 23.0443 19.5539 22.9147 19.7459 22.8054C21.1035 22.0289 23.034 22.193 24.2852 23.2067C24.3497 23.259 24.3538 23.3569 24.2935 23.4141C23.8055 23.8748 23.2406 24.3221 22.683 24.7636C22.3292 25.0437 21.9784 25.3215 21.6519 25.599C20.7727 26.3471 19.8482 27.0599 18.8586 27.703C17.8798 28.3393 16.6353 29.0549 15.1695 29.515C13.6534 29.9927 11.9032 30.1961 9.96732 29.7593C5.97559 28.8567 3.33898 26.3225 2.34379 22.4326Z" fill="url(#paint1_linear_4629_33710)"/>
<path fill-rule="evenodd" clip-rule="evenodd" d="M29.182 20.811C30.4186 20.811 31.4211 21.815 31.4211 23.0536C31.4211 24.2921 30.4186 25.2962 29.182 25.2962C27.9453 25.2962 26.9429 24.2922 26.9429 23.0536C26.9429 21.815 27.9453 20.811 29.182 20.811Z" fill="#0B9ED9"/>
<path fill-rule="evenodd" clip-rule="evenodd" d="M21.3083 14.5051C22.5178 14.5051 23.4982 15.487 23.4982 16.6983C23.4982 17.9097 22.5178 18.8916 21.3083 18.8916C20.099 18.8916 19.1187 17.9096 19.1187 16.6983C19.1187 15.487 20.099 14.5051 21.3083 14.5051Z" fill="#0B9ED9"/>
<path d="M55.86 20.02C55.86 18.66 56.1667 17.44 56.78 16.36C57.3933 15.2667 58.2267 14.4133 59.28 13.8C60.3467 13.1867 61.5267 12.88 62.82 12.88C64.34 12.88 65.6667 13.2467 66.8 13.98C67.9333 14.7133 68.76 15.7533 69.28 17.1H67.1C66.7133 16.26 66.1533 15.6133 65.42 15.16C64.7 14.7067 63.8333 14.48 62.82 14.48C61.8467 14.48 60.9733 14.7067 60.2 15.16C59.4267 15.6133 58.82 16.26 58.38 17.1C57.94 17.9267 57.72 18.9 57.72 20.02C57.72 21.1267 57.94 22.1 58.38 22.94C58.82 23.7667 59.4267 24.4067 60.2 24.86C60.9733 25.3133 61.8467 25.54 62.82 25.54C63.8333 25.54 64.7 25.32 65.42 24.88C66.1533 24.4267 66.7133 23.78 67.1 22.94H69.28C68.76 24.2733 67.9333 25.3067 66.8 26.04C65.6667 26.76 64.34 27.12 62.82 27.12C61.5267 27.12 60.3467 26.82 59.28 26.22C58.2267 25.6067 57.3933 24.76 56.78 23.68C56.1667 22.6 55.86 21.38 55.86 20.02ZM74.2092 17.82C74.5292 17.1933 74.9826 16.7067 75.5692 16.36C76.1692 16.0133 76.8959 15.84 77.7492 15.84V17.72H77.2692C75.2292 17.72 74.2092 18.8267 74.2092 21.04V27H72.3892V16.04H74.2092V17.82ZM85.0302 27.18C84.0035 27.18 83.0702 26.9467 82.2302 26.48C81.4035 26.0133 80.7502 25.3533 80.2702 24.5C79.8035 23.6333 79.5702 22.6333 79.5702 21.5C79.5702 20.38 79.8102 19.3933 80.2902 18.54C80.7835 17.6733 81.4502 17.0133 82.2902 16.56C83.1302 16.0933 84.0702 15.86 85.1102 15.86C86.1502 15.86 87.0902 16.0933 87.9302 16.56C88.7702 17.0133 89.4302 17.6667 89.9102 18.52C90.4035 19.3733 90.6502 20.3667 90.6502 21.5C90.6502 22.6333 90.3968 23.6333 89.8902 24.5C89.3968 25.3533 88.7235 26.0133 87.8702 26.48C87.0168 26.9467 86.0702 27.18 85.0302 27.18ZM85.0302 25.58C85.6835 25.58 86.2968 25.4267 86.8702 25.12C87.4435 24.8133 87.9035 24.3533 88.2502 23.74C88.6102 23.1267 88.7902 22.38 88.7902 21.5C88.7902 20.62 88.6168 19.8733 88.2702 19.26C87.9235 18.6467 87.4702 18.1933 86.9102 17.9C86.3502 17.5933 85.7435 17.44 85.0902 17.44C84.4235 17.44 83.8102 17.5933 83.2502 17.9C82.7035 18.1933 82.2635 18.6467 81.9302 19.26C81.5968 19.8733 81.4302 20.62 81.4302 21.5C81.4302 22.3933 81.5902 23.1467 81.9102 23.76C82.2435 24.3733 82.6835 24.8333 83.2302 25.14C83.7768 25.4333 84.3768 25.58 85.0302 25.58ZM108.043 16.04L104.623 27H102.743L100.103 18.3L97.4631 27H95.5831L92.1431 16.04H94.0031L96.5231 25.24L99.2431 16.04H101.103L103.763 25.26L106.243 16.04H108.043ZM109.569 21.48C109.569 20.36 109.796 19.38 110.249 18.54C110.703 17.6867 111.323 17.0267 112.109 16.56C112.909 16.0933 113.803 15.86 114.789 15.86C115.643 15.86 116.436 16.06 117.169 16.46C117.903 16.8467 118.463 17.36 118.849 18V12.2H120.689V27H118.849V24.94C118.489 25.5933 117.956 26.1333 117.249 26.56C116.543 26.9733 115.716 27.18 114.769 27.18C113.796 27.18 112.909 26.94 112.109 26.46C111.323 25.98 110.703 25.3067 110.249 24.44C109.796 23.5733 109.569 22.5867 109.569 21.48ZM118.849 21.5C118.849 20.6733 118.683 19.9533 118.349 19.34C118.016 18.7267 117.563 18.26 116.989 17.94C116.429 17.6067 115.809 17.44 115.129 17.44C114.449 17.44 113.829 17.6 113.269 17.92C112.709 18.24 112.263 18.7067 111.929 19.32C111.596 19.9333 111.429 20.6533 111.429 21.48C111.429 22.32 111.596 23.0533 111.929 23.68C112.263 24.2933 112.709 24.7667 113.269 25.1C113.829 25.42 114.449 25.58 115.129 25.58C115.809 25.58 116.429 25.42 116.989 25.1C117.563 24.7667 118.016 24.2933 118.349 23.68C118.683 23.0533 118.849 22.3267 118.849 21.5ZM128.585 27.14C127.665 27.14 126.838 26.98 126.105 26.66C125.385 26.3267 124.818 25.8733 124.405 25.3C123.992 24.7133 123.778 24.04 123.765 23.28H125.705C125.772 23.9333 126.038 24.4867 126.505 24.94C126.985 25.38 127.678 25.6 128.585 25.6C129.452 25.6 130.132 25.3867 130.625 24.96C131.132 24.52 131.385 23.96 131.385 23.28C131.385 22.7467 131.238 22.3133 130.945 21.98C130.652 21.6467 130.285 21.3933 129.845 21.22C129.405 21.0467 128.812 20.86 128.065 20.66C127.145 20.42 126.405 20.18 125.845 19.94C125.298 19.7 124.825 19.3267 124.425 18.82C124.038 18.3 123.845 17.6067 123.845 16.74C123.845 15.98 124.038 15.3067 124.425 14.72C124.812 14.1333 125.352 13.68 126.045 13.36C126.752 13.04 127.558 12.88 128.465 12.88C129.772 12.88 130.838 13.2067 131.665 13.86C132.505 14.5133 132.978 15.38 133.085 16.46H131.085C131.018 15.9267 130.738 15.46 130.245 15.06C129.752 14.6467 129.098 14.44 128.285 14.44C127.525 14.44 126.905 14.64 126.425 15.04C125.945 15.4267 125.705 15.9733 125.705 16.68C125.705 17.1867 125.845 17.6 126.125 17.92C126.418 18.24 126.772 18.4867 127.185 18.66C127.612 18.82 128.205 19.0067 128.965 19.22C129.885 19.4733 130.625 19.7267 131.185 19.98C131.745 20.22 132.225 20.6 132.625 21.12C133.025 21.6267 133.225 22.32 133.225 23.2C133.225 23.88 133.045 24.52 132.685 25.12C132.325 25.72 131.792 26.2067 131.085 26.58C130.378 26.9533 129.545 27.14 128.585 27.14ZM150.903 16.04L147.483 27H145.603L142.963 18.3L140.323 27H138.443L135.003 16.04H136.863L139.383 25.24L142.103 16.04H143.963L146.623 25.26L149.103 16.04H150.903ZM152.43 21.48C152.43 20.36 152.656 19.38 153.11 18.54C153.563 17.6867 154.183 17.0267 154.97 16.56C155.77 16.0933 156.656 15.86 157.63 15.86C158.59 15.86 159.423 16.0667 160.13 16.48C160.836 16.8933 161.363 17.4133 161.71 18.04V16.04H163.55V27H161.71V24.96C161.35 25.6 160.81 26.1333 160.09 26.56C159.383 26.9733 158.556 27.18 157.61 27.18C156.636 27.18 155.756 26.94 154.97 26.46C154.183 25.98 153.563 25.3067 153.11 24.44C152.656 23.5733 152.43 22.5867 152.43 21.48ZM161.71 21.5C161.71 20.6733 161.543 19.9533 161.21 19.34C160.876 18.7267 160.423 18.26 159.85 17.94C159.29 17.6067 158.67 17.44 157.99 17.44C157.31 17.44 156.69 17.6 156.13 17.92C155.57 18.24 155.123 18.7067 154.79 19.32C154.456 19.9333 154.29 20.6533 154.29 21.48C154.29 22.32 154.456 23.0533 154.79 23.68C155.123 24.2933 155.57 24.7667 156.13 25.1C156.69 25.42 157.31 25.58 157.99 25.58C158.67 25.58 159.29 25.42 159.85 25.1C160.423 24.7667 160.876 24.2933 161.21 23.68C161.543 23.0533 161.71 22.3267 161.71 21.5ZM168.845 18.06C169.205 17.4333 169.738 16.9133 170.445 16.5C171.165 16.0733 171.998 15.86 172.945 15.86C173.918 15.86 174.798 16.0933 175.585 16.56C176.385 17.0267 177.012 17.6867 177.465 18.54C177.918 19.38 178.145 20.36 178.145 21.48C178.145 22.5867 177.918 23.5733 177.465 24.44C177.012 25.3067 176.385 25.98 175.585 26.46C174.798 26.94 173.918 27.18 172.945 27.18C172.012 27.18 171.185 26.9733 170.465 26.56C169.758 26.1333 169.218 25.6067 168.845 24.98V32.2H167.025V16.04H168.845V18.06ZM176.285 21.48C176.285 20.6533 176.118 19.9333 175.785 19.32C175.452 18.7067 174.998 18.24 174.425 17.92C173.865 17.6 173.245 17.44 172.565 17.44C171.898 17.44 171.278 17.6067 170.705 17.94C170.145 18.26 169.692 18.7333 169.345 19.36C169.012 19.9733 168.845 20.6867 168.845 21.5C168.845 22.3267 169.012 23.0533 169.345 23.68C169.692 24.2933 170.145 24.7667 170.705 25.1C171.278 25.42 171.898 25.58 172.565 25.58C173.245 25.58 173.865 25.42 174.425 25.1C174.998 24.7667 175.452 24.2933 175.785 23.68C176.118 23.0533 176.285 22.32 176.285 21.48Z" fill="black"/>
<defs>
<linearGradient id="paint0_linear_4629_33710" x1="69.7733" y1="8.8245" x2="27.3297" y2="-14.9259" gradientUnits="userSpaceOnUse">
<stop stop-color="#0B9ED8"/>
<stop offset="1" stop-color="#1CD875"/>
</linearGradient>
<linearGradient id="paint1_linear_4629_33710" x1="66.4511" y1="19.3951" x2="22.2187" y2="-7.52417" gradientUnits="userSpaceOnUse">
<stop stop-color="#0B9ED8"/>
<stop offset="1" stop-color="#1CD875"/>
</linearGradient>
</defs>
</svg>
