<?xml version="1.0" encoding="utf-8"?>
<!-- Generator: Adobe Illustrator 26.2.1, SVG Export Plug-In . SVG Version: 6.00 Build 0)  -->
<svg version="1.1" id="Layer_1" xmlns="http://www.w3.org/2000/svg" xmlns:xlink="http://www.w3.org/1999/xlink" x="0px" y="0px"
	 viewBox="0 0 500 500" style="enable-background:new 0 0 500 500;" xml:space="preserve">
<style type="text/css">
	.st0{fill:none;}
	.st1{fill-rule:evenodd;clip-rule:evenodd;fill:url(#Combined-Shape_00000096045970399057588180000005647923740725047168_);}
	.st2{fill-rule:evenodd;clip-rule:evenodd;fill:url(#Combined-Shape_00000067936513579577320470000011073697286494377101_);}
	.st3{fill-rule:evenodd;clip-rule:evenodd;fill:#0B9ED8;}
</style>
<rect x="-50" y="-50" class="st0" width="600" height="600"/>
<g>
	
		<linearGradient id="Combined-Shape_00000177444546159109805390000018368967634514409877_" gradientUnits="userSpaceOnUse" x1="281.5159" y1="250" x2="500" y2="250">
		<stop  offset="0" style="stop-color:#0B9ED8"/>
		<stop  offset="1" style="stop-color:#1CD875"/>
	</linearGradient>
	
		<path id="Combined-Shape_33_" style="fill-rule:evenodd;clip-rule:evenodd;fill:url(#Combined-Shape_00000177444546159109805390000018368967634514409877_);" d="
		M394.74,143.53l0.79,0c24.62,0.19,47.63,9.31,68.1,27.23l0,0l0.94,0.83C495.25,199,506.54,236,496.34,275.9l0,0l-0.32,1.24
		c-10.83,40.72-38.74,67.26-80.78,76.77l0,0l-0.91,0.2c-20.23,4.39-38.55,2.21-54.44-2.8l0,0l-1.01-0.32
		c-15.15-4.91-28.05-12.34-38.23-18.97l0,0l-1.5-0.98c-8.92-5.9-17.34-12.32-25.4-19.05c13.34-2.06,23.75-13.01,25.04-26.61
		c10.08,8.32,20.69,15.96,32.13,22.26l0,0l0.7,0.38c23.08,12.55,43.04,15.18,62.74,8.33l0,0l0.88-0.31
		c28.97-10.38,44.46-29.97,47.31-59.85l0,0l0.08-0.83c2.35-27.29-8.52-48.81-32.27-63.99l0,0l-0.68-0.43
		c-22.33-13.97-46.15-14.43-72.78-1.36l0,0l-1.14,0.56c-18.12,9.06-33.98,21.4-49.29,35.32l0,0l-1.91,1.74
		c-3.82,3.5-7.61,7.09-11.4,10.75l0,0l-0.11,0.1c-0.63,0.5-1.56,0.39-2.07-0.25l0,0l-0.36-0.46c-8.75-11.51-11.21-26.29-7.32-39.64
		l0,0l0.06-0.16c0.09-0.2,0.21-0.39,0.38-0.54l0,0l0.9-0.81c16.87-15.16,35.58-29.91,57.7-40.16l0,0l1.25-0.57
		c5.41-2.45,10.79-4.53,16.11-6.22C371.66,145.42,383.37,143.53,394.74,143.53L394.74,143.53z"/>
	
		<linearGradient id="Combined-Shape_00000140707106547131616040000003589047482488002196_" gradientUnits="userSpaceOnUse" x1="-9.094947e-12" y1="250" x2="237.6198" y2="250">
		<stop  offset="0" style="stop-color:#0B9ED8"/>
		<stop  offset="1" style="stop-color:#1CD875"/>
	</linearGradient>
	
		<path id="Combined-Shape_32_" style="fill-rule:evenodd;clip-rule:evenodd;fill:url(#Combined-Shape_00000140707106547131616040000003589047482488002196_);" d="
		M105.26,143.53l1.03,0.01c11.04,0.11,22.41,2.01,34.01,5.7l0,0l1.23,0.4c5.33,1.75,10.72,3.88,16.13,6.39l0,0l1.18,0.55
		c16.45,7.78,31,18.04,44.32,29.06c-13.79,1.05-24.9,11.69-26.72,25.28c-10.45-8.22-21.4-15.49-33.34-21.34l0,0l-0.81-0.39
		c-26.58-12.79-50.35-12.07-72.65,2.18l0,0l-0.72,0.46c-23.49,15.31-34.09,36.96-31.48,64.36l0,0l0.09,0.9
		c3.11,29.67,18.86,49.07,48.1,59.26l0,0l0.6,0.2c19.71,6.66,39.69,3.84,62.84-8.91l0,0l1.25-0.69
		c11.6-6.53,22.35-14.41,32.57-22.97l0,0l0.63-0.51c1.68-1.35,3.44-2.55,5.26-3.59l0,0l0.44-0.25c14.42-7.99,34.68-6.17,47.85,4.52
		l0,0l0.11,0.1c0.57,0.58,0.58,1.53-0.03,2.11l0,0l-1.23,1.14c-8.27,7.6-18.35,14.87-26.88,22.12l0,0l-1.34,1.14
		c-8.95,7.55-18.35,14.75-28.38,21.27l0,0l-0.68,0.44c-10.31,6.66-23.31,14.06-38.56,18.85l0,0l-0.71,0.22
		c-15.96,4.93-34.34,6.96-54.63,2.38l0,0l-1.27-0.29c-41.75-9.86-69.35-36.71-79.83-77.71l0,0l-0.3-1.21
		c-9.76-39.84,1.94-76.71,33.02-103.93C57.06,152.64,80.34,143.53,105.26,143.53L105.26,143.53z"/>
	<path id="Path_23_" class="st3" d="M289.17,258.63c13.16,0,23.82,10.69,23.82,23.88c0,13.19-10.67,23.88-23.82,23.88
		c-13.16,0-23.82-10.69-23.82-23.88C265.35,269.32,276.01,258.63,289.17,258.63z"/>
	<path id="Path_22_" class="st3" d="M205.41,191.49c12.87,0,23.3,10.45,23.3,23.35c0,12.9-10.43,23.35-23.3,23.35
		c-12.86,0-23.29-10.45-23.29-23.35S192.54,191.49,205.41,191.49z"/>
</g>
</svg>
